<svg xmlns="http://www.w3.org/2000/svg" width="256" height="256"><path fill-opacity=".016" d="M0 128.004v128.004l128.25-.254 128.25-.254.254-127.75L257.008 0H0v128.004m.485.496c0 70.4.119 99.053.265 63.672.146-35.38.146-92.98 0-128C.604 29.153.485 58.1.485 128.5" fill="#45a247" fill-rule="evenodd"/><path fill-opacity=".279" d="M3.882 5.882L0 9.765v24.713c0 28.021.227 29.001 7.544 32.543C11.233 68.807 13.753 69 33.415 69c24.176 0 26.677-.517 30.855-6.373 2.124-2.979 2.245-4.209 2.548-25.921.297-21.289.183-23.073-1.729-27.022C61.472 2.212 60.573 2 32.478 2H7.765L3.882 5.882M108.206 4.48c-5.051 4.251-5.336 6.082-5.008 32.288l.302 24.105 2.958 3.086c4.53 4.724 7.763 5.212 32.222 4.86 20.579-.296 22.383-.468 25-2.39 5.829-4.28 6.317-6.697 6.318-31.278.002-24.946-.52-27.456-6.472-31.135C160.487 2.138 158.583 2 135.709 2h-24.556l-2.947 2.48M72.2 9.2c-1.712 1.712-1.484 7.373.371 9.229.865.864 2.665 1.571 4 1.571 2.302 0 2.429.314 2.429 6 0 5.984-.008 6-2.965 6C73.47 32 71 34.14 71 36.363 71 37.753 74.441 40 76.571 40 78.98 40 79 40.083 79 49.929 79 62.459 79.431 63 89.416 63 98.402 63 100 61.691 100 54.326 100 48.814 98.03 46 94.171 46 92.056 46 92 45.669 92 33.222c0-11.54.194-12.943 2-14.49 2.253-1.929 2.73-7.602.8-9.532-1.64-1.64-20.96-1.64-22.6 0M12 35v21h42V14H12v21m103 0v21h42V14h-42v21m-95 0v13h26V22H20v13m103 0v13h26V22h-26v13M75.223 68.557C73.395 69.837 73 71.068 73 75.485 73 82.497 74.501 84 81.5 84c6.875 0 8.5-1.543 8.5-8.071C90 69.494 87.688 67 81.723 67c-2.353 0-5.278.701-6.5 1.557m-62 8C11.365 77.858 11 79.055 11 83.857c0 3.159.54 6.283 1.2 6.943.66.66 3.252 1.2 5.759 1.2 3.477 0 4.857.475 5.809 2 1.114 1.783 2.332 2 11.24 2 8.659 0 10.259.267 11.992 2 1.501 1.501 3.333 2 7.345 2 6.91 0 8.655-1.776 8.655-8.806 0-4.383-.37-5.39-2.492-6.781-1.371-.898-3.171-1.373-4-1.054-1.131.434-1.508-.15-1.508-2.334C55 77.744 51.938 75 48.277 75c-2.967 0-6.601 3.654-5.983 6.017.428 1.635-.319 1.868-6.91 2.158l-7.389.325.003-2.693C28.001 77.276 24.67 75 19.5 75c-2.23 0-5.055.701-6.277 1.557m130.401 1.526c-16.252 2.212-30.38 9.439-42.651 21.816-9.717 9.801-15.409 19.527-19.115 32.658-3.144 11.142-3.161 28.688-.037 39.752 6.231 22.065 21.106 39.436 41.812 48.824 9.777 4.433 18.465 6.179 30.867 6.202 12.015.023 19.135-1.425 30.507-6.203l6.794-2.854 15.849 15.966c16.81 16.933 20.807 19.712 28.35 19.712 14.404 0 24.079-15.501 17.761-28.456-.536-1.1-8.428-9.506-17.536-18.679l-16.562-16.68 2.589-5.82c5.25-11.804 6.243-16.866 6.246-31.821.002-11.847-.356-15.154-2.326-21.5-11.074-35.679-45.774-57.924-82.548-52.917m-41.401 5.474c-1.266.886-2.223 2.608-2.223 4 0 2.382-.194 2.443-7.809 2.443-11.194 0-11.325.161-10.977 13.44l.286 10.915 4.473-6.928c4.736-7.335 15.862-19.035 20.972-22.054 1.68-.992 3.055-2.157 3.055-2.589 0-1.382-5.478-.838-7.777.773m36.277 3.335c-8.83 2.2-14.754 4.848-22.276 9.956-13.198 8.963-24.135 24.962-27.79 40.652-2.409 10.338-1.585 26.65 1.835 36.335 9.426 26.698 32.889 44.42 60.773 45.904 11.761.626 22.711-1.801 34.12-7.564l7.662-3.87 18.338 18.373c20.241 20.281 22.491 21.747 29.114 18.98 5.128-2.143 7.957-6.945 7.387-12.54-.425-4.166-1.371-5.308-19.102-23.057l-18.655-18.674 4.026-8.443c5.443-11.416 7.346-19.452 7.329-30.944-.029-18.868-5.838-32.59-19.732-46.612-7.396-7.463-10.567-9.864-17.529-13.268-14.401-7.041-30.706-8.915-45.5-5.228m0 11.975c-17.795 5.113-31.807 18.938-37.635 37.133-2.89 9.021-2.89 23.979 0 33 7.682 23.984 28.211 39 53.319 39 16.057 0 29.512-5.676 40.058-16.899 7.599-8.087 11.171-14.486 13.78-24.686 2.506-9.801 2.506-18.029 0-27.83-2.609-10.2-6.181-16.599-13.78-24.686-6.945-7.391-16.099-12.845-25.794-15.371-7.779-2.026-22.291-1.862-29.948.339M9.352 106.058c-1.732.521-4.545 2.536-6.25 4.479L0 114.07v49.777l2.703 3.212c4.614 5.483 6.985 5.943 30.515 5.919 18.914-.019 21.759-.238 25.566-1.966 3.27-1.484 4.744-2.958 6.228-6.228 1.732-3.818 1.944-6.625 1.944-25.784 0-18.986-.222-21.989-1.899-25.684-3.307-7.282-5.231-7.787-30.557-8.01-12.1-.107-23.417.232-25.148.752M12 139v21h42v-42H12v21m8 0v13h26v-26H20v13" fill="#45a247" fill-rule="evenodd"/><path fill-opacity=".337" d="M6.299 3.96C.371 7.574 0 9.401 0 35c0 25.024.312 26.74 5.615 30.912C8.146 67.903 9.432 68 33.253 68h24.982l3.883-3.882L66 60.235l-.015-24.367c-.016-26.734-.206-27.753-5.897-31.588-3.285-2.214-4.07-2.28-26.986-2.276-21.645.003-23.867.165-26.803 1.956m103.121-.074c-5.826 3.552-6.42 6.425-6.42 31.047 0 24.118.507 26.961 5.514 30.899 2.656 2.09 3.638 2.168 27.217 2.168 27.008 0 28.157-.23 31.883-6.386 1.706-2.817 1.886-5.358 1.886-26.658 0-26.107-.189-26.966-6.804-31-2.929-1.785-5.163-1.949-26.696-1.949-21.232 0-23.797.182-26.58 1.879M72.698 8.635c-.384.384-.698 2.633-.698 4.996C72 18.185 73.691 20 77.934 20 79.79 20 80 20.604 80 25.94v5.939l-3.75.311c-3.23.267-3.793.682-4.06 2.993-.336 2.908 2.368 5.145 5.571 4.608 1.54-.258 1.796.969 2.239 10.709l.5 11h18l.3-6.337c.342-7.226-.699-9.163-4.922-9.163H91V33.035c0-12.051.145-13.042 2.052-14.063 1.7-.91 2.001-1.902 1.75-5.785L94.5 8.5l-10.552-.282c-5.803-.155-10.865.033-11.25.417M12 35v21h42V14H12v21m103 0v21h42V14h-42v21M20.667 22.667c-.367.366-.667 6.216-.667 13V48h26V22H33.667c-6.784 0-12.634.3-13 .667M123 35v13h26V22h-26v13M74.432 69.316c-.297.774-.403 4.058-.236 7.296L74.5 82.5h14v-14l-6.764-.296c-5.099-.223-6.896.05-7.304 1.112m-62.397 8.618c-1.6 2.99-1.269 10.689.536 12.495.959.958 3.311 1.571 6.032 1.571 3.042 0 4.643.477 5.035 1.5.462 1.203 2.682 1.5 11.228 1.5 9.648 0 10.773.193 11.93 2.045 1.115 1.785 2.13 2.007 7.99 1.75L61.5 98.5v-14L58 84c-3.111-.444-3.556-.889-4-4-.495-3.467-.548-3.5-5.5-3.5h-5l-.313 3.791-.313 3.791-7.687-.291c-6.658-.252-7.648-.524-7.396-2.03.16-.956-.193-2.643-.785-3.75C26.099 76.316 24.918 76 19.5 76c-5.333 0-6.606.33-7.465 1.934m123.752 2.045c-26.488 6.727-47.05 27.178-53.779 53.489-2.712 10.605-2.747 27.324-.078 37.758 5.185 20.272 18.94 37.677 37.472 47.416 10.994 5.777 17.582 7.457 31.635 8.065 10.657.462 13.787.227 20.873-1.565 4.584-1.159 10.831-3.25 13.88-4.646l5.545-2.539 16.582 16.365c13.005 12.834 17.606 16.751 21.325 18.154 8.307 3.135 17.92.259 22.557-6.749 3.627-5.481 4.257-14.767 1.377-20.309-1.119-2.155-9.217-11.062-17.994-19.795l-15.958-15.876 2.854-6.124c4.792-10.278 6.334-17.854 6.339-31.123.007-21.592-6.591-37.783-21.393-52.5-9.855-9.799-16.476-14.006-28.763-18.275-7.678-2.668-10.368-3.085-21.761-3.375-10.423-.265-14.529.058-20.713 1.629m-34.12 3.688c-.367.366-.667 1.732-.667 3.035 0 2.607 1.055 2.317 6-1.651l2.5-2.007-3.583-.022c-1.971-.012-3.884.278-4.25.645M138 86.514c-7.894 2.148-20.656 8.695-26.684 13.69-10.89 9.024-19.225 22.061-22.887 35.796-2.31 8.661-2.306 24.364.007 32.983 5.043 18.792 18.698 35.574 35.745 43.929 12.286 6.022 18.982 7.416 32.793 6.826 12.427-.531 18.28-2.095 29.783-7.963l6.257-3.192 18.743 18.593c10.309 10.226 19.795 18.912 21.08 19.303 8.373 2.547 17.304-6.458 14.998-15.121-.567-2.13-6.751-9.218-19.209-22.016l-18.374-18.873 2.885-4.985c4.208-7.271 7.91-19.819 8.561-29.022 1.31-18.504-6.024-37.752-19.533-51.264-8.665-8.668-15.615-13.14-26.33-16.943-6.097-2.164-9.444-2.657-19.835-2.92-8.85-.225-14.106.12-18 1.179m-55.915 5.884c-.754.908-1.059 4.844-.872 11.25l.287 9.852 3.585-5.5c1.972-3.025 5.955-8.088 8.851-11.25L99.201 91h-7.978c-5.612 0-8.322.415-9.138 1.398m58.688 6.09c-17.583 4.468-31.706 16.993-38.487 34.135-2.469 6.24-2.721 8.081-2.721 19.877s.252 13.637 2.721 19.877c9.156 23.147 30.426 36.751 55.214 35.315 30.144-1.746 51.717-24.769 51.717-55.192 0-24.224-13.601-44.025-35.838-52.176-8.687-3.184-23.923-4.042-32.606-1.836m3.227 6.61c-15.796 3.085-30.938 17.247-36.015 33.685-5.138 16.636.274 36.788 13.134 48.902 11.239 10.588 28.124 15.366 43.082 12.19 15.051-3.196 30.199-16.419 35.267-30.785 6.484-18.378 2.075-37.53-11.682-50.74-12.464-11.969-27.325-16.467-43.786-13.252M6.299 107.932C.366 111.6 0 113.407 0 139c0 25.599.371 27.426 6.299 31.04 2.943 1.795 5.164 1.953 27.569 1.956l24.367.004 3.883-3.882L66 164.235v-50.264l-3.422-3.736-3.421-3.735-24.829-.274c-23.265-.256-25.03-.149-28.029 1.706m6.388 9.715c-.378.377-.687 10.061-.687 21.52V160h42.04l-.27-21.25-.27-21.25-20.063-.27c-11.035-.149-20.372.039-20.75.417m7.747 9.664c-.277.721-.375 6.459-.219 12.75L20.5 151.5l12.75.28 12.75.28V126H33.469c-9.415 0-12.657.326-13.035 1.311" fill="#45a247" fill-rule="evenodd"/><path fill-opacity=".983" d="M8.071 3.716c-1.886.981-4.361 3.053-5.5 4.604C.649 10.939.478 12.729.194 33.28c-.347 25.158.432 29.302 6.171 32.801C9.217 67.82 11.622 67.993 33 67.993c34.154 0 33 1.138 33-32.542C66 1.345 67.208 2.62 34.5 2.216c-20.472-.253-23.377-.088-26.429 1.5m103 0c-1.886.981-4.361 3.054-5.5 4.607-1.957 2.668-2.071 4.128-2.071 26.5 0 34.467-1.287 33.179 33.151 33.173C170.105 67.991 169 69.118 169 35c0-33.809 1.375-32.378-31.5-32.784-20.472-.253-23.377-.088-26.429 1.5M73.058 9.43c-.653.787-1.046 3.149-.873 5.25.299 3.626.505 3.836 4.065 4.13l3.75.311v12.752l-3.149.314c-6.246.621-6.623 6.813-.415 6.813h3.498l.283 11.25.283 11.25 7.845.294C97.858 62.15 99 61.417 99 54.959 99 48.126 98.348 47 94.393 47H91V33.117c0-13.043.121-13.915 2-14.407 1.568-.41 2-1.364 2-4.416 0-2.142-.54-4.434-1.2-5.094-1.812-1.812-19.208-1.619-20.742.23m-61.603 4.827c-.274.713-.376 10.51-.226 21.77L11.5 56.5l21.226.27 21.226.27.558-2.27c.306-1.249.43-11.045.274-21.77L54.5 13.5l-21.274-.27c-16.703-.212-21.38.009-21.771 1.027m103 0c-.274.713-.376 10.51-.226 21.77L114.5 56.5h43v-43l-21.274-.27c-16.703-.212-21.38.009-21.771 1.027M21 35.531v12.531l12.25-.281L45.5 47.5l.281-12.25.281-12.25H21v12.531m102.219-.281l.281 12.25 12.75.28 12.75.28V23h-26.062l.281 12.25M75.07 69.416c-.693.835-1.051 3.809-.872 7.25L74.5 82.5l6.409.302c4.451.209 6.661-.096 7.235-1 1.263-1.992 1.011-11.247-.344-12.602-1.705-1.705-11.271-1.543-12.73.216m-61.82 7.246c-.817.33-1.25 2.717-1.25 6.886C12 90.849 13.066 92 19.827 92c2.597 0 4.157.516 4.535 1.5.463 1.207 2.71 1.5 11.49 1.5 10.158 0 10.952.142 11.45 2.048.484 1.85 1.193 2.018 7.367 1.75L61.5 98.5l.302-5.834C62.15 85.965 61.033 84 56.878 84 54.393 84 54 83.618 54 81.2c0-3.633-1.657-5.2-5.5-5.2S43 77.567 43 81.2V84H27v-2.8c0-1.54-.54-3.34-1.2-4-1.168-1.168-10.045-1.548-12.55-.538m128.085 2.366c-8.192 1.477-21.111 6.591-28.018 11.091-9.624 6.271-20.258 18.153-25.121 28.07-5.279 10.767-7.157 18.003-7.877 30.352-1.293 22.197 6.545 42.37 22.353 57.527 8.655 8.299 16.455 12.99 28.382 17.07 8.686 2.971 10.492 3.236 22.446 3.289 14.325.063 21.343-1.324 32.123-6.349l6.123-2.854 16.377 16.49c9.007 9.07 17.825 17.119 19.595 17.888 3.817 1.658 12.015 1.829 15.967.331 8.999-3.409 13.687-15.261 9.777-24.715-.956-2.313-7.773-9.972-18.035-20.264l-16.497-16.546 2.636-5.954c6.686-15.095 8.458-35.219 4.475-50.793-6.605-25.824-26.84-46.283-52.541-53.121-7.313-1.946-25.119-2.783-32.165-1.512m-39.295 5.424c-.663.799-1.055 2.079-.873 2.845.246 1.03 1.349.652 4.232-1.452L109.297 83h-3.026c-1.664 0-3.568.653-4.231 1.452m38.46 1.083c-3.85.83-11.198 3.561-16.328 6.07-7.547 3.689-10.906 6.12-17.585 12.727-6.812 6.739-9.076 9.83-12.944 17.668-9.95 20.166-10.189 40.414-.703 59.5 7.577 15.245 17.646 25.279 32.56 32.449 10.632 5.112 17.006 6.53 29 6.452 12.027-.078 20.127-2.065 30.493-7.481l7.493-3.914 18.007 17.89c9.904 9.84 18.99 18.389 20.191 18.997 5.768 2.922 13.731-.032 16.646-6.176 1.946-4.1 2.108-6.985.563-10.033-.608-1.201-9.226-10.356-19.15-20.344L210.7 191.18l4.116-8.34c5.178-10.491 7.15-18.863 7.169-30.43.038-23.332-12.28-45.373-32.313-57.821-14.576-9.058-33.23-12.492-49.172-9.054m-57.833 6.132C82.3 92.033 82 96.81 82 102.281v9.947l3.945-5.864c2.169-3.225 6.01-8.002 8.535-10.614L99.07 91h-7.868c-4.328 0-8.169.3-8.535.667m62.908 6.335c-23.303 4.174-40.378 20.276-45.064 42.498-4.083 19.363 1.186 37.406 14.906 51.037 11.17 11.097 23.326 15.959 39.583 15.83 23.42-.185 42.206-13.379 51.066-35.867 2.056-5.219 2.363-7.692 2.363-19 0-11.269-.312-13.799-2.346-19-6.659-17.026-19.27-28.921-35.892-33.852-6.776-2.011-18.283-2.78-24.616-1.646m2.425 6.047c-26.49 3.41-46.329 29.497-42.079 55.33 3.596 21.857 20.516 38.501 42.331 41.642 22.981 3.308 47.158-13.3 53.215-36.556 2.964-11.381 1.389-24.339-4.241-34.89-4.221-7.911-13.825-16.982-22.26-21.024-6.434-3.084-9.089-3.772-18.966-4.919-1.375-.16-4.975.028-8 .417M7.116 107.712c-6.241 3.075-7.069 6.72-7.094 31.222-.02 19.571.156 21.802 2.022 25.657 3.371 6.964 5.243 7.409 31.107 7.407 33.687-.002 32.846.844 32.846-32.998 0-33.87.862-33.008-32.997-32.976-18.952.018-23.034.284-25.884 1.688m4.57 9.935c-.377.378-.686 10.013-.686 21.413 0 17.977.21 20.807 1.582 21.333.87.334 10.265.607 20.877.607 15.172 0 19.541-.294 20.44-1.378.796-.959 1.061-7.567.872-21.75L54.5 117.5l-21.064-.269c-11.585-.148-21.373.039-21.75.416m9.312 21.603l-.002 12.25 12.502-.307L46 150.886V127H21l-.002 12.25" fill="#45a247" fill-rule="evenodd"/></svg>